
        <svg xmlns="http://www.w3.org/2000/svg" xmlns:xlink="http://www.w3.org/1999/xlink" version="1.1" width="3252.3158925062867" height="1538.0943054834866" viewBox="0 0 3252.3158925062867 1538.0943054834866">
			
			<g transform="scale(12.61579462531434) translate(10, 10)">
				<defs id="SvgjsDefs1307"><linearGradient id="SvgjsLinearGradient1312"><stop id="SvgjsStop1313" stop-color="#006838" offset="0"/><stop id="SvgjsStop1314" stop-color="#96cf24" offset="1"/></linearGradient></defs><g id="SvgjsG1308" featureKey="G09qjj-0" transform="matrix(1.0214592432698173,0,0,1.0214592432698173,-263.50615395783586,0.01327849478245819)" fill="#fff"><g xmlns="http://www.w3.org/2000/svg"><path d="M290.065,35.554c-0.539,0-0.938,0.293-1.181,0.54c-0.596,0.604-0.949,1.597-0.946,2.658   c0.003,1.771,1.001,3.222,2.225,3.233l0.012,0.494l0.001-0.494c0.446,0,0.874-0.198,1.236-0.571   c0.577-0.597,0.908-1.566,0.886-2.594C292.262,37.065,291.239,35.569,290.065,35.554z"/><path d="M267.118,36.142c-1.306,0.083-2.43,1.609-2.55,3.336c-0.066,0.958,0.192,1.829,0.71,2.39   c0.336,0.365,0.75,0.558,1.197,0.558v0.486h0.001l0.067-0.488c1.229-0.057,2.302-1.538,2.389-3.299   c0.049-1.006-0.232-1.937-0.752-2.489C267.969,36.411,267.611,36.142,267.118,36.142z"/><path d="M295.887,35.608l0.044,0.49c0.001,0,0.001,0,0.001,0v-0.489c0.53,0,0.915-0.292,1.145-0.536   c0.54-0.577,0.83-1.529,0.775-2.545c-0.098-1.768-1.153-3.3-2.306-3.347c-0.001,0-0.003,0-0.004,0c-0.52,0-0.87,0.263-1.082,0.484   c-0.559,0.581-0.875,1.566-0.847,2.637C293.664,34.087,294.684,35.571,295.887,35.608z"/><path d="M284.029,29.001c-1.144,0.012-2.134,1.514-2.173,3.279c-0.023,1.051,0.307,2.036,0.886,2.636   c0.243,0.251,0.646,0.55,1.185,0.55v0.495l0.01-0.495c1.195-0.007,2.165-1.46,2.16-3.238   C286.09,30.479,285.144,29.001,284.029,29.001z"/><path d="M296.02,42.156c-0.001,0-0.001,0-0.002,0c-0.577,0-0.982,0.298-1.227,0.548   c-0.577,0.59-0.915,1.56-0.903,2.593c0.022,1.767,1.042,3.219,2.274,3.237l0.026,0.493v-0.492c0.462,0,0.901-0.203,1.271-0.585   c0.568-0.587,0.893-1.531,0.87-2.525C298.29,43.682,297.232,42.185,296.02,42.156z"/><path d="M273.248,29.36c-1.239,0.071-2.329,1.617-2.453,3.378c-0.073,0.991,0.193,1.918,0.712,2.482   c0.318,0.348,0.709,0.531,1.128,0.531v0.486h0.001l0.062-0.488c1.208-0.05,2.253-1.545,2.333-3.333   c0.046-1.054-0.246-2.021-0.781-2.586C274.046,29.617,273.708,29.36,273.248,29.36z"/><path d="M278.233,35.636c-1.224,0.033-2.277,1.543-2.338,3.296c-0.033,1.007,0.282,1.959,0.843,2.546   c0.356,0.372,0.78,0.569,1.229,0.569l-0.001,0.491v0l0.029-0.492c1.222-0.023,2.237-1.487,2.264-3.262   c0.016-1.052-0.318-2.033-0.894-2.624C279.132,35.921,278.745,35.636,278.233,35.636z"/><path d="M317.471,57.132c-0.53-1.199-1.458-2.252-2.606-3.092c3.395-7.028,3.955-14.44,0.442-23.436   c-2.729-6.988-8.545-9.589-14.231-9.996c0.029,0.002,0.059,0.001,0.088,0.003c2.921-3.171,4.714-7.394,4.714-12.047   c-4.322,0-8.283,1.537-11.37,4.092c0.014-4.584-1.726-9.172-5.223-12.669c-3.497,3.498-5.236,8.086-5.223,12.67   c-3.088-2.556-7.05-4.094-11.371-4.094c0,4.654,1.793,8.876,4.714,12.047c0.029-0.002,0.058-0.001,0.086-0.003   c-5.687,0.408-11.502,3.008-14.229,9.996c-2.435,6.231-2.915,11.702-1.855,16.812c-1.283,0.965-2.243,2.1-2.818,3.401   c-1.059,2.396-1.279,6.395,3.679,11.838c0.835,0.916,1.659,1.827,2.476,2.729c0.945,1.044,1.874,2.068,2.794,3.075   c-2.042,2.69-3.326,8.025-3.326,10.141c0,3.306,2.69,5.994,5.997,5.994s5.997-2.688,5.997-5.994c0-0.365-0.042-0.834-0.115-1.362   c4.685,4.289,9.083,7.107,13.344,7.107c3.335,0,6.754-1.729,10.328-4.534v3.574c-2.149,2.601-3.509,8.205-3.509,10.384   c0,3.307,2.689,5.996,5.995,5.996c3.307,0,5.996-2.689,5.996-5.996c0-2.188-1.373-7.834-3.539-10.421   c-0.108-1.06-0.446-5.826,1.558-9.499c2.53-2.58,5.147-5.466,7.876-8.482c0.811-0.896,1.629-1.801,2.458-2.711   C318.014,61.097,318.333,59.083,317.471,57.132z M313.382,49.798c-0.393-0.411-0.869-0.677-1.38-0.7c-0.001,0-0.005,0-0.006,0   c-0.514,0-0.932,0.189-1.28,0.547c-0.552,0.562-0.862,1.447-0.853,2.425c0,0.019,0.004,0.036,0.005,0.055   c-0.321-0.035-0.645-0.058-0.969-0.058c-1.611,0-3.852,0.421-6.116,2.103c0.449-0.584,0.71-1.371,0.701-2.234   c-0.015-1.708-1.065-3.182-2.296-3.216c0,0,0,0-0.001,0c-0.487,0-0.914,0.195-1.276,0.564c-0.573,0.582-0.912,1.531-0.906,2.539   c0.01,1.75,1.021,3.186,2.254,3.201l0.02,0.455c-0.039,0.04-0.08,0.07-0.119,0.112c-1.047,1.097-1.983,1.645-2.86,1.706   c-0.28-1.272-1.13-2.237-2.123-2.248c-0.44,0-0.848,0.186-1.194,0.496c-0.749-0.726-1.526-1.606-2.351-2.549   c-0.095-0.107-0.193-0.221-0.29-0.33c0.063-0.294,0.106-0.596,0.105-0.908c-0.007-1.733-1.039-3.206-2.256-3.215   c-0.447,0-0.872,0.194-1.235,0.546c-0.93-0.867-1.952-1.698-3.076-2.441c0.145-0.424,0.232-0.893,0.231-1.395   c-0.002-1.74-1.008-3.21-2.198-3.21c-1.046,0.006-1.953,1.123-2.187,2.56c-1.621-0.54-3.418-0.862-5.431-0.862   c-0.673,0-1.327,0.017-1.97,0.044c-0.147-0.378-0.341-0.717-0.591-0.975c-0.239-0.246-0.638-0.54-1.173-0.54   c-0.905,0.031-1.704,0.806-2.111,1.872c-2.403,0.348-4.521,0.915-6.29,1.693c-0.736-4.494-0.087-9.065,1.896-14.139   c0.293-0.751,0.633-1.426,1.002-2.05c0.082,0.017,0.166,0.028,0.253,0.028l0.105-0.004c1.123-0.088,2.196-1.555,2.411-3.243   c2.255-1.806,4.947-2.563,7.435-2.796c-0.423,0.62-0.717,1.458-0.771,2.34c-0.064,1.037,0.217,2.001,0.752,2.577   c0.216,0.232,0.576,0.509,1.071,0.509v0.489h0.001l0.044-0.489c1.146-0.038,2.153-1.557,2.2-3.318   c0.021-0.821-0.148-1.588-0.467-2.166c3.305,0.145,6.149,1.01,7.8,1.838c-0.004,0.094-0.021,0.183-0.021,0.278   c0.007,1.754,0.977,3.251,2.117,3.27l0.022,0.492v-0.492c0.499,0,0.871-0.281,1.096-0.517c0.562-0.592,0.873-1.58,0.832-2.642   c-0.012-0.307-0.059-0.601-0.121-0.886c1.718-0.666,4.124-1.25,6.838-1.347c-0.419,0.569-0.641,1.436-0.58,2.403   c0.111,1.765,1.186,3.313,2.344,3.38l0.079,0.002c0.483,0,0.822-0.265,1.021-0.487c0.492-0.549,0.727-1.476,0.629-2.477   c-0.108-1.102-0.595-2.145-1.216-2.787c2.354,0.173,4.923,0.8,7.151,2.336c-0.012,0.255-0.006,0.521,0.028,0.799   c0.221,1.777,1.37,3.322,2.564,3.444c0.047,0.005,0.095,0.007,0.141,0.007c0.314,0,0.585-0.114,0.813-0.325   c0.32,0.566,0.621,1.167,0.882,1.833C315.077,38.265,315.412,43.992,313.382,49.798z"/><path d="M300.713,35.881c-0.002,0-0.003,0-0.005,0c-0.57,0-0.939,0.276-1.16,0.508   c-0.544,0.569-0.847,1.522-0.811,2.549c0.06,1.771,1.109,3.246,2.34,3.289l0.053,0.489h0.001v-0.488   c0.443,0,0.858-0.193,1.201-0.559c0.532-0.568,0.818-1.489,0.766-2.464C303.004,37.461,301.912,35.94,300.713,35.881z"/><path d="M311.182,36.571c-0.041-0.003-0.082-0.005-0.123-0.005c-0.383,0-0.738,0.165-1.026,0.477   c-0.489,0.529-0.742,1.426-0.677,2.399c0.119,1.745,1.222,3.225,2.455,3.297l0.093,0.002c0.448,0,0.855-0.189,1.18-0.548   c0.487-0.539,0.719-1.374,0.638-2.29C313.57,38.203,312.408,36.677,311.182,36.571z"/><path d="M306.889,42.565c-0.003,0-0.005,0-0.008,0c-0.498,0-0.894,0.182-1.224,0.526   c-0.537,0.56-0.84,1.486-0.811,2.479c0.054,1.747,1.107,3.199,2.348,3.24l0.05,0.489h0.001v-0.489c0.467,0,0.904-0.201,1.265-0.583   c0.538-0.568,0.824-1.44,0.783-2.392C309.223,44.128,308.122,42.631,306.889,42.565z"/><path d="M306.606,36.125l0.093,0.003c0.413,0,0.79-0.178,1.09-0.515c0.487-0.546,0.71-1.411,0.611-2.374   c-0.179-1.743-1.328-3.302-2.512-3.405c-0.039-0.003-0.077-0.005-0.115-0.005c-0.357,0-0.677,0.151-0.949,0.448   c-0.493,0.537-0.743,1.465-0.669,2.482C304.288,34.537,305.388,36.047,306.606,36.125z"/></g></g><g id="SvgjsG1309" featureKey="0yvIkK-0" transform="matrix(1.2979896969865519,0,0,1.2979896969865519,78.48189913991237,31.665812605881367)" fill="#fff"><path d="M6.16 12.08 q1.54 0 2.38 -0.69 t0.84 -1.83 t-0.82 -1.82 t-2.44 -0.7 l-2.86 0 l0 5.04 l2.9 0 z M5.76 5.84 q4.9 0 4.94 3.72 q0 3.14 -3.62 3.64 l4.12 6.8 l-1.5 0 l-3.98 -6.72 l-2.46 0 l0 6.72 l-1.32 0 l0 -14.16 l3.82 0 z M20.7 14.6 q0 -1.26 -0.94 -2.13 t-2.28 -0.87 q-1.3 0 -2.24 0.87 t-1.1 2.13 l6.56 0 z M17.56 10.52 q1.92 0 3.12 1.24 t1.22 3.2 l0 0.72 l-7.76 0 q0.08 1.56 1.03 2.51 t2.47 0.97 q0.94 0 1.79 -0.45 t1.31 -1.19 l0.88 0.74 q-1.3 1.98 -4 1.98 q-2.12 -0.02 -3.39 -1.38 t-1.29 -3.5 q0 -2.08 1.31 -3.45 t3.31 -1.39 z M28.92 10.52 q2 0 3.44 1.6 l-0.96 0.72 q-1.16 -1.24 -2.5 -1.24 q-1.56 0 -2.59 1.06 t-1.05 2.72 q0 1.66 1.04 2.71 t2.6 1.07 q1.48 0 2.5 -1.28 l0.92 0.76 q-1.34 1.58 -3.4 1.6 q-2.1 0 -3.46 -1.36 t-1.4 -3.5 q0 -2.06 1.35 -3.44 t3.51 -1.42 z M34.4 10.76 l1.2 0 l0 9.24 l-1.2 0 l0 -9.24 z M35 6.199999999999999 q0.4 0 0.65 0.26 t0.25 0.64 t-0.25 0.64 t-0.65 0.26 q-0.38 0 -0.64 -0.26 t-0.26 -0.64 t0.26 -0.64 t0.64 -0.26 z M39.82 15.379999999999999 q0 1.58 1.12 2.66 t2.74 1.12 q1.62 0 2.63 -1.07 t1.03 -2.71 q0 -1.6 -1 -2.68 t-2.68 -1.1 q-1.62 0 -2.72 1.1 t-1.12 2.68 z M43.68 10.52 q2.12 0 3.48 1.37 t1.38 3.49 q0 2.12 -1.36 3.48 t-3.5 1.38 q-1.18 0 -2.19 -0.5 t-1.51 -1.36 l-0.04 0 l0 6.18 l-1.2 0 l0 -13.8 l1.2 0 l0 1.62 l0.04 0 q0.48 -0.84 1.5 -1.35 t2.2 -0.51 z M58.459999999999994 14.6 q0 -1.26 -0.94 -2.13 t-2.28 -0.87 q-1.3 0 -2.24 0.87 t-1.1 2.13 l6.56 0 z M55.32 10.52 q1.92 0 3.12 1.24 t1.22 3.2 l0 0.72 l-7.76 0 q0.08 1.56 1.03 2.51 t2.47 0.97 q0.94 0 1.79 -0.45 t1.31 -1.19 l0.88 0.74 q-1.3 1.98 -4 1.98 q-2.12 -0.02 -3.39 -1.38 t-1.29 -3.5 q0 -2.08 1.31 -3.45 t3.31 -1.39 z M76.36 5.84 l0 1.2 l-7.16 0 l0 5.04 l6.66 0 l0 1.2 l-6.66 0 l0 6.72 l-1.32 0 l0 -14.16 l8.48 0 z M78.86 10.76 l1.2 0 l0 9.24 l-1.2 0 l0 -9.24 z M79.46000000000001 6.199999999999999 q0.4 0 0.65 0.26 t0.25 0.64 t-0.25 0.64 t-0.65 0.26 q-0.38 0 -0.64 -0.26 t-0.26 -0.64 t0.26 -0.64 t0.64 -0.26 z M87.86 10.52 q1.8 0 2.65 0.97 t0.87 3.05 l0 5.46 l-1.2 0 l0 -5.4 q0 -1.54 -0.57 -2.27 t-1.75 -0.73 q-1.46 0 -2.32 1.01 t-0.88 2.81 l0 4.58 l-1.2 0 l0 -6.74 q-0.02 -0.58 -0.1 -2.5 l1.2 0 q0.04 1.58 0.08 1.62 l0.06 0 q0.4 -0.84 1.27 -1.35 t1.89 -0.51 z M95.26 15.379999999999999 q0 1.66 1.04 2.72 t2.62 1.06 q1.56 0 2.69 -1.07 t1.17 -2.71 q0 -1.56 -1.11 -2.66 t-2.77 -1.12 q-1.56 0 -2.59 1.06 t-1.05 2.72 z M102.66 4.880000000000001 l1.2 0 l0 15.12 l-1.2 0 l0 -1.62 l-0.04 0 q-0.5 0.88 -1.53 1.37 t-2.17 0.49 q-2.06 0 -3.44 -1.35 t-1.42 -3.51 q0 -2.06 1.35 -3.44 t3.51 -1.42 q1.18 0 2.18 0.49 t1.52 1.37 l0.04 0 l0 -7.5 z M114.04 14.6 q0 -1.26 -0.94 -2.13 t-2.28 -0.87 q-1.3 0 -2.24 0.87 t-1.1 2.13 l6.56 0 z M110.9 10.52 q1.92 0 3.12 1.24 t1.22 3.2 l0 0.72 l-7.76 0 q0.08 1.56 1.03 2.51 t2.47 0.97 q0.94 0 1.79 -0.45 t1.31 -1.19 l0.88 0.74 q-1.3 1.98 -4 1.98 q-2.12 -0.02 -3.39 -1.38 t-1.29 -3.5 q0 -2.08 1.31 -3.45 t3.31 -1.39 z M122.04 10.52 q0.34 0 0.7 0.1 l-0.14 1.18 q-0.22 -0.08 -0.48 -0.08 q-1.46 0 -2.23 0.9 t-0.77 2.34 l0 5.04 l-1.2 0 l0 -6.74 q0 -0.2 -0.1 -2.5 l1.2 0 q0.04 1.38 0.08 1.62 q1.04 -1.86 2.94 -1.86 z"/></g>
			</g>
		</svg>
	